G04*
G04 #@! TF.GenerationSoftware,Altium Limited,Altium Designer,21.3.1 (25)*
G04*
G04 Layer_Physical_Order=2*
G04 Layer_Color=16711680*
%FSLAX25Y25*%
%MOIN*%
G70*
G04*
G04 #@! TF.SameCoordinates,4C1A46CD-458D-4170-9141-97B0DDD3FF2F*
G04*
G04*
G04 #@! TF.FilePolarity,Positive*
G04*
G01*
G75*
%ADD21C,0.04724*%
%ADD22R,0.04724X0.04724*%
%ADD23C,0.04331*%
%ADD27R,0.08661X0.08661*%
%ADD28C,0.08661*%
%ADD29R,0.04724X0.04724*%
%ADD33C,0.03000*%
%ADD34C,0.05000*%
%ADD35C,0.09449*%
%ADD36R,0.09449X0.09449*%
%ADD37R,0.05315X0.05315*%
%ADD38C,0.05315*%
%ADD39C,0.06000*%
%ADD40C,0.05906*%
%ADD41R,0.05906X0.05906*%
%ADD42R,0.05315X0.05315*%
%ADD43C,0.06299*%
%ADD44R,0.06299X0.06299*%
D21*
X164772Y157937D02*
D03*
X116000Y58157D02*
D03*
X94842Y53000D02*
D03*
D22*
X164772Y150063D02*
D03*
X116000Y77842D02*
D03*
D23*
X171465Y144158D02*
D03*
D27*
X75000Y20000D02*
D03*
X125721Y190000D02*
D03*
X42779Y164000D02*
D03*
D28*
X157441Y20000D02*
D03*
X43279Y190000D02*
D03*
X125221Y164000D02*
D03*
D29*
X75157Y53000D02*
D03*
D33*
X147500Y184500D02*
X148000Y185000D01*
X116717Y134500D02*
X117874Y135658D01*
Y136874D02*
X147500Y166500D01*
Y184500D01*
X117874Y135658D02*
Y136874D01*
X125470Y164250D02*
Y189750D01*
X125721Y190000D01*
X125221Y164000D02*
X125470Y164250D01*
X74642Y78358D02*
X75000Y78000D01*
X61858Y78358D02*
X74642D01*
X61500Y78716D02*
X61858Y78358D01*
X46000Y78500D02*
X55500Y88000D01*
X27500Y78500D02*
X46000D01*
X55500Y88000D02*
X75000D01*
X105079Y77921D02*
X115921D01*
X105000Y88000D02*
X126784D01*
X128000Y86783D01*
X75000Y78000D02*
X81283Y84284D01*
X115921Y77921D02*
X116000Y77842D01*
X105000Y78000D02*
X105079Y77921D01*
X81283Y84284D02*
Y134500D01*
X27500Y58500D02*
X33000Y53000D01*
X51784D01*
X61500Y43284D01*
Y78716D02*
X61533Y78750D01*
D34*
X147000Y103500D02*
X158472Y114972D01*
Y120972D02*
X159777Y122277D01*
X158472Y114972D02*
Y120972D01*
X147000Y76500D02*
Y103500D01*
Y76500D02*
X160500Y63000D01*
X35429Y189500D02*
X42279D01*
X32500Y186571D02*
X35429Y189500D01*
X28351Y122497D02*
X32500Y126646D01*
Y186571D01*
X43500Y114500D02*
Y163279D01*
X27500Y98500D02*
X43500Y114500D01*
X42779Y164000D02*
X43500Y163279D01*
X159777Y122277D02*
X160500Y123000D01*
Y145791D02*
X164772Y150063D01*
X160500Y123000D02*
Y145791D01*
X188500Y45929D02*
Y165000D01*
X160500Y43000D02*
X185571D01*
X169150Y184350D02*
X188500Y165000D01*
X185571Y43000D02*
X188500Y45929D01*
X169001Y184350D02*
X169150D01*
X168082Y185269D02*
X169001Y184350D01*
X89500Y75000D02*
Y82500D01*
X82673Y68173D02*
X89500Y75000D01*
X75000Y68000D02*
X75173Y68173D01*
X82673D01*
X89500Y82500D02*
X105000Y98000D01*
X75000Y52842D02*
X75157Y53000D01*
X75000Y20000D02*
Y52842D01*
Y53158D02*
X75157Y53000D01*
X105000Y98000D02*
Y113500D01*
X113716Y122216D02*
X128000D01*
X128060Y122277D01*
X105000Y113500D02*
X113716Y122216D01*
X128060Y122277D02*
X159777D01*
X157441Y20000D02*
Y20991D01*
X75000Y53158D02*
Y68000D01*
X157441Y20991D02*
X160500Y24050D01*
Y43000D01*
X28351Y119351D02*
Y122497D01*
X27500Y118500D02*
X28351Y119351D01*
D35*
X160500Y43000D02*
D03*
Y63000D02*
D03*
Y83000D02*
D03*
Y103000D02*
D03*
X27500Y58500D02*
D03*
Y78500D02*
D03*
Y98500D02*
D03*
Y118500D02*
D03*
D36*
X160500Y123000D02*
D03*
X27500Y38500D02*
D03*
D37*
X116717Y134500D02*
D03*
D38*
X81283D02*
D03*
X128000Y122216D02*
D03*
X61500Y78716D02*
D03*
D39*
X10000Y190000D02*
D03*
X190000Y10000D02*
D03*
X10000D02*
D03*
X190000Y190000D02*
D03*
D40*
X105000Y68000D02*
D03*
Y78000D02*
D03*
Y88000D02*
D03*
Y98000D02*
D03*
X75000Y68000D02*
D03*
Y78000D02*
D03*
Y88000D02*
D03*
D41*
Y98000D02*
D03*
D42*
X128000Y86783D02*
D03*
X61500Y43284D02*
D03*
D43*
X168000Y185000D02*
D03*
X158000D02*
D03*
D44*
X148000D02*
D03*
M02*
