G04*
G04 #@! TF.GenerationSoftware,Altium Limited,Altium Designer,21.3.1 (25)*
G04*
G04 Layer_Color=65535*
%FSLAX25Y25*%
%MOIN*%
G70*
G04*
G04 #@! TF.SameCoordinates,4C1A46CD-458D-4170-9141-97B0DDD3FF2F*
G04*
G04*
G04 #@! TF.FilePolarity,Positive*
G04*
G01*
G75*
%ADD10C,0.00787*%
%ADD11C,0.00984*%
%ADD12C,0.02362*%
%ADD13C,0.00500*%
%ADD14C,0.01000*%
D10*
X137665Y123000D02*
X136878D01*
X137665D01*
X51122Y38500D02*
X50335D01*
X51122D01*
X87500Y103079D02*
X87690Y102122D01*
X88232Y101311D01*
X89043Y100769D01*
X90000Y100579D01*
X90957Y100769D01*
X91768Y101311D01*
X92310Y102122D01*
X92500Y103079D01*
X86598Y129776D02*
Y139224D01*
X111402D01*
X86598Y129776D02*
X111402D01*
Y139224D01*
X152567Y165811D02*
X173433D01*
X152567Y142189D02*
Y165811D01*
Y142189D02*
X167823D01*
X173433Y147799D02*
Y165811D01*
X79567Y62921D02*
X100433D01*
X92500Y103079D02*
X100433D01*
X79567D02*
X87500D01*
X100433Y62921D02*
Y103079D01*
X79567Y62921D02*
Y103079D01*
X123276Y92098D02*
X132724D01*
X123276D02*
Y116902D01*
X132724Y92098D02*
Y116902D01*
X123276D02*
X132724D01*
X119839Y75087D02*
X120921D01*
X111079D02*
X112161D01*
X111079Y60913D02*
Y75087D01*
X119839Y60913D02*
X120921D01*
X111079D02*
X112161D01*
X120921D02*
Y75087D01*
X97520Y30433D02*
X134921D01*
Y9567D02*
Y30433D01*
X97520Y9567D02*
X134921D01*
X97520D02*
Y30433D01*
X80905Y20000D02*
X97520D01*
X134921D02*
X151535D01*
X106870Y9843D02*
Y30158D01*
X77913Y57921D02*
X92087D01*
Y48079D02*
Y49161D01*
Y56839D02*
Y57921D01*
X77913Y48079D02*
X92087D01*
X77913D02*
Y49161D01*
Y56839D02*
Y57921D01*
X179063Y177717D02*
Y196221D01*
X136937Y177717D02*
Y196221D01*
Y177717D02*
X179063D01*
X136937Y196221D02*
X179063D01*
X136937Y194252D02*
X179063D01*
X65799Y179567D02*
X103201D01*
X65799D02*
Y200433D01*
X103201D01*
Y179567D02*
Y200433D01*
Y190000D02*
X119815D01*
X49185D02*
X65799D01*
X93850Y179842D02*
Y200157D01*
X65299Y174433D02*
X102701D01*
Y153567D02*
Y174433D01*
X65299Y153567D02*
X102701D01*
X65299D02*
Y174433D01*
X48685Y164000D02*
X65299D01*
X102701D02*
X119315D01*
X74650Y153842D02*
Y174158D01*
X56776Y73402D02*
X66224D01*
Y48598D02*
Y73402D01*
X56776Y48598D02*
Y73402D01*
Y48598D02*
X66224D01*
D11*
X164870Y140122D02*
X164132Y140548D01*
Y139696D01*
X164870Y140122D01*
X75492Y103118D02*
X74754Y103544D01*
Y102692D01*
X75492Y103118D01*
X148492Y175157D02*
X147754Y175584D01*
Y174731D01*
X148492Y175157D01*
D12*
X84685Y99142D02*
X84240Y100065D01*
X83241Y100293D01*
X82440Y99654D01*
Y98629D01*
X83241Y97990D01*
X84240Y98218D01*
X84685Y99142D01*
D13*
X141209Y33000D02*
Y133000D01*
X181563Y33000D02*
Y133000D01*
X141209Y33000D02*
X181563D01*
X141209Y133000D02*
X181563D01*
X6437Y28500D02*
X46791D01*
X6437Y128500D02*
X46791D01*
X6437Y28500D02*
Y128500D01*
X46791Y28500D02*
Y128500D01*
D14*
X36021Y234998D02*
X32022D01*
Y231999D01*
X34022Y232999D01*
X35021D01*
X36021Y231999D01*
Y230000D01*
X35021Y229000D01*
X33022D01*
X32022Y230000D01*
X42019Y234998D02*
X38020D01*
Y231999D01*
X40020Y232999D01*
X41019D01*
X42019Y231999D01*
Y230000D01*
X41019Y229000D01*
X39020D01*
X38020Y230000D01*
X48017Y234998D02*
X44018D01*
Y231999D01*
X46018Y232999D01*
X47017D01*
X48017Y231999D01*
Y230000D01*
X47017Y229000D01*
X45018D01*
X44018Y230000D01*
X56015Y234998D02*
X60013D01*
X58014D01*
Y229000D01*
X62013D02*
X64012D01*
X63012D01*
Y232999D01*
X62013D01*
X67011Y229000D02*
Y232999D01*
X68011D01*
X69010Y231999D01*
Y229000D01*
Y231999D01*
X70010Y232999D01*
X71010Y231999D01*
Y229000D01*
X76008D02*
X74009D01*
X73009Y230000D01*
Y231999D01*
X74009Y232999D01*
X76008D01*
X77008Y231999D01*
Y230999D01*
X73009D01*
X79007Y232999D02*
Y229000D01*
Y230999D01*
X80007Y231999D01*
X81006Y232999D01*
X82006D01*
X91003Y229000D02*
Y234998D01*
X94002D01*
X95002Y233998D01*
Y231999D01*
X94002Y230999D01*
X91003D01*
X97001Y234998D02*
Y229000D01*
X99001Y230999D01*
X101000Y229000D01*
Y234998D01*
X102999Y229000D02*
Y234998D01*
X104999Y232999D01*
X106998Y234998D01*
Y229000D01*
X115995D02*
Y233998D01*
Y231999D01*
X114996D01*
X116995D01*
X115995D01*
Y233998D01*
X116995Y234998D01*
X120993Y232999D02*
X122993D01*
X123993Y231999D01*
Y229000D01*
X120993D01*
X119994Y230000D01*
X120993Y230999D01*
X123993D01*
X125992Y229000D02*
Y232999D01*
X128991D01*
X129991Y231999D01*
Y229000D01*
X141987Y234998D02*
Y229000D01*
X138988D01*
X137988Y230000D01*
Y231999D01*
X138988Y232999D01*
X141987D01*
X143986D02*
Y229000D01*
Y230999D01*
X144986Y231999D01*
X145985Y232999D01*
X146985D01*
X149984Y229000D02*
X151983D01*
X150984D01*
Y232999D01*
X149984D01*
X154982D02*
X156982Y229000D01*
X158981Y232999D01*
X163980Y229000D02*
X161980D01*
X160981Y230000D01*
Y231999D01*
X161980Y232999D01*
X163980D01*
X164979Y231999D01*
Y230999D01*
X160981D01*
X166979Y232999D02*
Y229000D01*
Y230999D01*
X167978Y231999D01*
X168978Y232999D01*
X169978D01*
X143000Y142999D02*
X141001D01*
X142001D01*
Y138001D01*
X141001Y137001D01*
X140001D01*
X139002Y138001D01*
X148998Y137001D02*
X145000D01*
X148998Y141000D01*
Y141999D01*
X147999Y142999D01*
X145999D01*
X145000Y141999D01*
X129000Y208500D02*
Y214498D01*
X131999D01*
X132999Y213498D01*
Y211499D01*
X131999Y210499D01*
X129000D01*
X130999D02*
X132999Y208500D01*
X138997Y214498D02*
X134998D01*
Y208500D01*
X138997D01*
X134998Y211499D02*
X136997D01*
X140996Y214498D02*
Y210499D01*
X142996Y208500D01*
X144995Y210499D01*
Y214498D01*
X152992Y208500D02*
Y212499D01*
X154992Y214498D01*
X156991Y212499D01*
Y208500D01*
Y211499D01*
X152992D01*
X25500Y209500D02*
X26500Y208500D01*
X28499D01*
X29499Y209500D01*
Y213498D01*
X28499Y214498D01*
X26500D01*
X25500Y213498D01*
Y212499D01*
X26500Y211499D01*
X29499D01*
X31498Y208500D02*
X35497Y212499D01*
X37496Y208500D02*
X39496D01*
X38496D01*
Y214498D01*
X37496Y213498D01*
X42494Y209500D02*
X43494Y208500D01*
X45494D01*
X46493Y209500D01*
Y213498D01*
X45494Y214498D01*
X43494D01*
X42494Y213498D01*
Y212499D01*
X43494Y211499D01*
X46493D01*
X48493Y208500D02*
X52491Y212499D01*
X58489Y208500D02*
X54491D01*
X58489Y212499D01*
Y213498D01*
X57490Y214498D01*
X55490D01*
X54491Y213498D01*
X60489D02*
X61488Y214498D01*
X63488D01*
X64487Y213498D01*
Y209500D01*
X63488Y208500D01*
X61488D01*
X60489Y209500D01*
Y213498D01*
X70486Y208500D02*
X66487D01*
X70486Y212499D01*
Y213498D01*
X69486Y214498D01*
X67486D01*
X66487Y213498D01*
X76484Y208500D02*
X72485D01*
X76484Y212499D01*
Y213498D01*
X75484Y214498D01*
X73484D01*
X72485Y213498D01*
X60500Y219000D02*
Y224998D01*
X62499Y222999D01*
X64499Y224998D01*
Y219000D01*
X67498Y222999D02*
X69497D01*
X70497Y221999D01*
Y219000D01*
X67498D01*
X66498Y220000D01*
X67498Y220999D01*
X70497D01*
X72496Y222999D02*
Y219000D01*
Y220999D01*
X73496Y221999D01*
X74496Y222999D01*
X75495D01*
X78494Y219000D02*
Y224998D01*
Y220999D02*
X81493Y222999D01*
X78494Y220999D02*
X81493Y219000D01*
X90490Y224998D02*
Y219000D01*
Y221999D01*
X94489D01*
Y224998D01*
Y219000D01*
X97488D02*
X99487D01*
X100487Y220000D01*
Y221999D01*
X99487Y222999D01*
X97488D01*
X96488Y221999D01*
Y220000D01*
X97488Y219000D01*
X103486D02*
Y223998D01*
Y221999D01*
X102486D01*
X104486D01*
X103486D01*
Y223998D01*
X104486Y224998D01*
X107485Y219000D02*
Y222999D01*
X108484D01*
X109484Y221999D01*
Y219000D01*
Y221999D01*
X110484Y222999D01*
X111484Y221999D01*
Y219000D01*
X116482D02*
X114482D01*
X113483Y220000D01*
Y221999D01*
X114482Y222999D01*
X116482D01*
X117482Y221999D01*
Y220999D01*
X113483D01*
X119481Y219000D02*
X121480D01*
X120481D01*
Y222999D01*
X119481D01*
X124479Y219000D02*
X127478D01*
X128478Y220000D01*
X127478Y220999D01*
X125479D01*
X124479Y221999D01*
X125479Y222999D01*
X128478D01*
X131477Y223998D02*
Y222999D01*
X130477D01*
X132477D01*
X131477D01*
Y220000D01*
X132477Y219000D01*
X138475D02*
X136475D01*
X135476Y220000D01*
Y221999D01*
X136475Y222999D01*
X138475D01*
X139474Y221999D01*
Y220999D01*
X135476D01*
X141474Y222999D02*
Y219000D01*
Y220999D01*
X142473Y221999D01*
X143473Y222999D01*
X144473D01*
X79100Y142700D02*
Y148698D01*
X82099D01*
X83099Y147698D01*
Y145699D01*
X82099Y144699D01*
X79100D01*
X81099D02*
X83099Y142700D01*
X85098Y147698D02*
X86098Y148698D01*
X88097D01*
X89097Y147698D01*
Y146699D01*
X88097Y145699D01*
X87097D01*
X88097D01*
X89097Y144699D01*
Y143700D01*
X88097Y142700D01*
X86098D01*
X85098Y143700D01*
X25500Y139999D02*
X23501D01*
X24500D01*
Y135001D01*
X23501Y134001D01*
X22501D01*
X21501Y135001D01*
X27499Y134001D02*
X29499D01*
X28499D01*
Y139999D01*
X27499Y138999D01*
X47503Y19500D02*
X51502D01*
X49503Y21499D02*
Y17501D01*
X53501Y16501D02*
X55501D01*
X54501D01*
Y22499D01*
X53501Y21499D01*
X62499Y16501D02*
X58500D01*
X62499Y20500D01*
Y21499D01*
X61499Y22499D01*
X59500D01*
X58500Y21499D01*
X64498Y22499D02*
Y18500D01*
X66497Y16501D01*
X68497Y18500D01*
Y22499D01*
X30001Y22499D02*
X29002Y23499D01*
X27002D01*
X26003Y22499D01*
Y18501D01*
X27002Y17501D01*
X29002D01*
X30001Y18501D01*
Y20500D01*
X28002D01*
X32001Y17501D02*
Y23499D01*
X35999Y17501D01*
Y23499D01*
X37999D02*
Y17501D01*
X40998D01*
X41997Y18501D01*
Y22499D01*
X40998Y23499D01*
X37999D01*
X162000Y173999D02*
X160001D01*
X161001D01*
Y169001D01*
X160001Y168001D01*
X159001D01*
X158002Y169001D01*
X164000Y172999D02*
X164999Y173999D01*
X166999D01*
X167998Y172999D01*
Y172000D01*
X166999Y171000D01*
X165999D01*
X166999D01*
X167998Y170000D01*
Y169001D01*
X166999Y168001D01*
X164999D01*
X164000Y169001D01*
X115500Y51499D02*
X114501Y52499D01*
X112501D01*
X111502Y51499D01*
Y47501D01*
X112501Y46501D01*
X114501D01*
X115500Y47501D01*
X121498Y46501D02*
X117500D01*
X121498Y50500D01*
Y51499D01*
X120499Y52499D01*
X118499D01*
X117500Y51499D01*
X154002Y203999D02*
Y199001D01*
X155001Y198001D01*
X157001D01*
X158000Y199001D01*
Y203999D01*
X163998Y198001D02*
X160000D01*
X163998Y202000D01*
Y202999D01*
X162999Y203999D01*
X160999D01*
X160000Y202999D01*
X84001Y113499D02*
Y108501D01*
X85001Y107501D01*
X87000D01*
X88000Y108501D01*
Y113499D01*
X89999Y107501D02*
X91999D01*
X90999D01*
Y113499D01*
X89999Y112499D01*
X55502Y31001D02*
Y36999D01*
X58501D01*
X59500Y35999D01*
Y34000D01*
X58501Y33000D01*
X55502D01*
X57501D02*
X59500Y31001D01*
X65498D02*
X61500D01*
X65498Y35000D01*
Y35999D01*
X64499Y36999D01*
X62499D01*
X61500Y35999D01*
X123800Y128400D02*
Y134398D01*
X126799D01*
X127799Y133398D01*
Y131399D01*
X126799Y130399D01*
X123800D01*
X125799D02*
X127799Y128400D01*
X129798D02*
X131797D01*
X130798D01*
Y134398D01*
X129798Y133398D01*
X83002Y31499D02*
Y25501D01*
X86001D01*
X87000Y26501D01*
Y30499D01*
X86001Y31499D01*
X83002D01*
X89000Y30499D02*
X89999Y31499D01*
X91999D01*
X92998Y30499D01*
Y29500D01*
X91999Y28500D01*
X90999D01*
X91999D01*
X92998Y27500D01*
Y26501D01*
X91999Y25501D01*
X89999D01*
X89000Y26501D01*
X38502Y181499D02*
Y175501D01*
X41501D01*
X42500Y176501D01*
Y180499D01*
X41501Y181499D01*
X38502D01*
X48498Y175501D02*
X44500D01*
X48498Y179500D01*
Y180499D01*
X47499Y181499D01*
X45499D01*
X44500Y180499D01*
X38001Y153999D02*
Y148001D01*
X41000D01*
X42000Y149001D01*
Y152999D01*
X41000Y153999D01*
X38001D01*
X43999Y148001D02*
X45999D01*
X44999D01*
Y153999D01*
X43999Y152999D01*
X87500Y44999D02*
X86500Y45999D01*
X84501D01*
X83501Y44999D01*
Y41001D01*
X84501Y40001D01*
X86500D01*
X87500Y41001D01*
X89499Y40001D02*
X91499D01*
X90499D01*
Y45999D01*
X89499Y44999D01*
M02*
