M48
;Layer_Color=9474304
;FILE_FORMAT=2:4
INCH,TZ
;TYPE=PLATED
T1F00S00C0.0276
T2F00S00C0.0335
T3F00S00C0.0354
T4F00S00C0.0394
T5F00S00C0.0571
T6F00S00C0.0630
T7F00S00C0.1300
;TYPE=NON_PLATED
T8F00S00C0.0433
%
T01
X7516Y5300
X9484
X11600Y5816
Y7784
X16477Y15006
Y15794
T02
X6150Y4328
Y7872
X12800Y8678
Y12222
X11672Y13450
X8128
T03
X7500Y6800
Y7800
Y8800
Y9800
X10500
Y8800
Y7800
Y6800
T04
X14800Y18500
X15800
X16800
T05
X7500Y2000
X15744
X12522Y16400
X12572Y19000
X4328
X4278Y16400
T06
X2750Y3850
X16050Y4300
Y6300
Y8300
Y10300
Y12300
X2750Y11850
Y9850
Y7850
Y5850
T07
X1000Y1000
X19000
Y19000
X1000
T08
X17146Y14416
M30
