G04*
G04 #@! TF.GenerationSoftware,Altium Limited,Altium Designer,21.3.1 (25)*
G04*
G04 Layer_Color=8388736*
%FSLAX25Y25*%
%MOIN*%
G70*
G04*
G04 #@! TF.SameCoordinates,4C1A46CD-458D-4170-9141-97B0DDD3FF2F*
G04*
G04*
G04 #@! TF.FilePolarity,Negative*
G04*
G01*
G75*
%ADD15R,0.05131X0.08477*%
%ADD16C,0.10249*%
%ADD17R,0.10249X0.10249*%
%ADD18R,0.06115X0.06115*%
%ADD19C,0.06115*%
%ADD20C,0.06800*%
%ADD21C,0.04724*%
%ADD22R,0.04724X0.04724*%
%ADD23C,0.04331*%
%ADD24C,0.06706*%
%ADD25R,0.06706X0.06706*%
%ADD26R,0.06115X0.06115*%
%ADD27R,0.08661X0.08661*%
%ADD28C,0.08661*%
%ADD29R,0.04724X0.04724*%
%ADD30C,0.07099*%
%ADD31R,0.07099X0.07099*%
D15*
X59000Y10000D02*
D03*
X34500D02*
D03*
D16*
X160500Y43000D02*
D03*
Y63000D02*
D03*
Y83000D02*
D03*
Y103000D02*
D03*
X27500Y58500D02*
D03*
Y78500D02*
D03*
Y98500D02*
D03*
Y118500D02*
D03*
D17*
X160500Y123000D02*
D03*
X27500Y38500D02*
D03*
D18*
X116717Y134500D02*
D03*
D19*
X81283D02*
D03*
X128000Y122216D02*
D03*
X61500Y78716D02*
D03*
D20*
X10000Y190000D02*
D03*
X190000Y10000D02*
D03*
X10000D02*
D03*
X190000Y190000D02*
D03*
D21*
X164772Y157937D02*
D03*
X116000Y58157D02*
D03*
X94842Y53000D02*
D03*
D22*
X164772Y150063D02*
D03*
X116000Y77842D02*
D03*
D23*
X171465Y144158D02*
D03*
D24*
X105000Y68000D02*
D03*
Y78000D02*
D03*
Y88000D02*
D03*
Y98000D02*
D03*
X75000Y68000D02*
D03*
Y78000D02*
D03*
Y88000D02*
D03*
D25*
Y98000D02*
D03*
D26*
X128000Y86783D02*
D03*
X61500Y43284D02*
D03*
D27*
X75000Y20000D02*
D03*
X125721Y190000D02*
D03*
X42779Y164000D02*
D03*
D28*
X157441Y20000D02*
D03*
X43279Y190000D02*
D03*
X125221Y164000D02*
D03*
D29*
X75157Y53000D02*
D03*
D30*
X168000Y185000D02*
D03*
X158000D02*
D03*
D31*
X148000D02*
D03*
M02*
