G04*
G04 #@! TF.GenerationSoftware,Altium Limited,Altium Designer,21.3.1 (25)*
G04*
G04 Layer_Color=16711935*
%FSLAX25Y25*%
%MOIN*%
G70*
G04*
G04 #@! TF.SameCoordinates,4C1A46CD-458D-4170-9141-97B0DDD3FF2F*
G04*
G04*
G04 #@! TF.FilePolarity,Positive*
G04*
G01*
G75*
%ADD10C,0.00787*%
G36*
X163154Y153599D02*
X163151D01*
X163144D01*
X163129D01*
X163107Y153596D01*
X163085Y153592D01*
X163060D01*
X162998Y153581D01*
X162932Y153570D01*
X162867Y153549D01*
X162809Y153527D01*
X162783Y153512D01*
X162761Y153494D01*
X162758Y153490D01*
X162747Y153476D01*
X162729Y153454D01*
X162710Y153425D01*
X162689Y153385D01*
X162674Y153341D01*
X162659Y153286D01*
X162656Y153228D01*
Y153206D01*
X162659Y153184D01*
X162663Y153152D01*
X162670Y153119D01*
X162678Y153083D01*
X162692Y153046D01*
X162710Y153010D01*
X162714Y153006D01*
X162721Y152995D01*
X162736Y152981D01*
X162750Y152959D01*
X162776Y152941D01*
X162801Y152919D01*
X162830Y152901D01*
X162867Y152886D01*
X162871D01*
X162885Y152879D01*
X162911Y152875D01*
X162943Y152868D01*
X162987Y152860D01*
X163042Y152857D01*
X163107Y152850D01*
X163184D01*
X164920D01*
Y152515D01*
X163202D01*
X163198D01*
X163187D01*
X163173D01*
X163151D01*
X163122Y152518D01*
X163093D01*
X163023Y152526D01*
X162943Y152533D01*
X162860Y152548D01*
X162783Y152569D01*
X162710Y152595D01*
X162707D01*
X162703Y152598D01*
X162681Y152609D01*
X162652Y152628D01*
X162612Y152653D01*
X162572Y152689D01*
X162528Y152729D01*
X162485Y152780D01*
X162448Y152839D01*
X162445Y152846D01*
X162434Y152868D01*
X162419Y152901D01*
X162405Y152948D01*
X162386Y153006D01*
X162372Y153072D01*
X162361Y153144D01*
X162357Y153225D01*
Y153257D01*
X162361Y153279D01*
X162365Y153308D01*
X162368Y153337D01*
X162383Y153414D01*
X162405Y153494D01*
X162437Y153578D01*
X162459Y153621D01*
X162485Y153661D01*
X162514Y153698D01*
X162547Y153734D01*
X162550Y153738D01*
X162554Y153741D01*
X162568Y153749D01*
X162583Y153760D01*
X162601Y153774D01*
X162627Y153789D01*
X162656Y153803D01*
X162689Y153822D01*
X162725Y153836D01*
X162769Y153851D01*
X162812Y153865D01*
X162863Y153880D01*
X162918Y153887D01*
X162980Y153898D01*
X163042Y153902D01*
X163111D01*
X163154Y153599D01*
D02*
G37*
G36*
X163107Y151783D02*
X163103D01*
X163096Y151779D01*
X163082Y151776D01*
X163064Y151772D01*
X163042Y151769D01*
X163016Y151761D01*
X162962Y151743D01*
X162896Y151718D01*
X162834Y151685D01*
X162776Y151648D01*
X162725Y151605D01*
X162721Y151597D01*
X162707Y151583D01*
X162689Y151554D01*
X162670Y151517D01*
X162648Y151474D01*
X162630Y151419D01*
X162616Y151357D01*
X162612Y151292D01*
Y151270D01*
X162616Y151255D01*
X162619Y151215D01*
X162630Y151164D01*
X162648Y151106D01*
X162674Y151044D01*
X162710Y150982D01*
X162761Y150924D01*
X162769Y150917D01*
X162791Y150899D01*
X162823Y150877D01*
X162867Y150848D01*
X162922Y150819D01*
X162983Y150797D01*
X163056Y150778D01*
X163136Y150771D01*
X163140D01*
X163147D01*
X163158D01*
X163173Y150775D01*
X163213Y150778D01*
X163260Y150789D01*
X163318Y150804D01*
X163376Y150829D01*
X163435Y150866D01*
X163489Y150913D01*
X163497Y150920D01*
X163511Y150939D01*
X163533Y150968D01*
X163558Y151008D01*
X163584Y151059D01*
X163606Y151121D01*
X163620Y151190D01*
X163628Y151266D01*
Y151299D01*
X163624Y151324D01*
X163620Y151357D01*
X163613Y151394D01*
X163606Y151437D01*
X163595Y151485D01*
X163868Y151448D01*
Y151430D01*
X163864Y151415D01*
Y151368D01*
X163872Y151328D01*
X163879Y151281D01*
X163890Y151226D01*
X163908Y151164D01*
X163933Y151106D01*
X163966Y151044D01*
Y151040D01*
X163970Y151037D01*
X163984Y151019D01*
X164010Y150993D01*
X164043Y150964D01*
X164090Y150935D01*
X164145Y150909D01*
X164206Y150891D01*
X164243Y150884D01*
X164283D01*
X164286D01*
X164290D01*
X164312D01*
X164341Y150891D01*
X164381Y150899D01*
X164425Y150913D01*
X164472Y150931D01*
X164520Y150960D01*
X164563Y151000D01*
X164567Y151004D01*
X164581Y151022D01*
X164600Y151048D01*
X164621Y151081D01*
X164640Y151124D01*
X164658Y151175D01*
X164672Y151233D01*
X164676Y151299D01*
Y151328D01*
X164669Y151361D01*
X164661Y151405D01*
X164647Y151452D01*
X164629Y151499D01*
X164600Y151550D01*
X164563Y151597D01*
X164559Y151601D01*
X164541Y151616D01*
X164516Y151637D01*
X164479Y151663D01*
X164432Y151688D01*
X164374Y151714D01*
X164305Y151736D01*
X164225Y151750D01*
X164279Y152060D01*
X164283D01*
X164294Y152056D01*
X164308Y152052D01*
X164330Y152049D01*
X164356Y152041D01*
X164385Y152031D01*
X164454Y152009D01*
X164534Y151972D01*
X164614Y151929D01*
X164691Y151874D01*
X164760Y151805D01*
X164763Y151801D01*
X164767Y151794D01*
X164774Y151783D01*
X164785Y151769D01*
X164800Y151750D01*
X164814Y151725D01*
X164829Y151699D01*
X164847Y151667D01*
X164876Y151594D01*
X164905Y151510D01*
X164924Y151412D01*
X164931Y151361D01*
Y151270D01*
X164927Y151230D01*
X164920Y151182D01*
X164909Y151124D01*
X164891Y151059D01*
X164869Y150993D01*
X164840Y150928D01*
Y150924D01*
X164836Y150920D01*
X164825Y150899D01*
X164803Y150866D01*
X164778Y150829D01*
X164742Y150786D01*
X164701Y150742D01*
X164654Y150698D01*
X164600Y150662D01*
X164592Y150658D01*
X164574Y150647D01*
X164541Y150633D01*
X164501Y150615D01*
X164454Y150596D01*
X164399Y150582D01*
X164338Y150571D01*
X164276Y150567D01*
X164268D01*
X164246D01*
X164217Y150571D01*
X164177Y150578D01*
X164130Y150589D01*
X164079Y150607D01*
X164028Y150629D01*
X163977Y150658D01*
X163970Y150662D01*
X163955Y150673D01*
X163930Y150695D01*
X163901Y150724D01*
X163868Y150760D01*
X163831Y150804D01*
X163799Y150855D01*
X163766Y150917D01*
Y150913D01*
X163762Y150906D01*
X163759Y150895D01*
X163755Y150880D01*
X163741Y150840D01*
X163719Y150789D01*
X163690Y150731D01*
X163653Y150673D01*
X163606Y150618D01*
X163551Y150567D01*
X163544Y150564D01*
X163522Y150549D01*
X163486Y150527D01*
X163438Y150505D01*
X163380Y150484D01*
X163311Y150462D01*
X163231Y150447D01*
X163144Y150444D01*
X163140D01*
X163129D01*
X163111D01*
X163089Y150447D01*
X163060Y150451D01*
X163027Y150458D01*
X162991Y150465D01*
X162951Y150473D01*
X162863Y150502D01*
X162816Y150524D01*
X162772Y150546D01*
X162725Y150575D01*
X162678Y150607D01*
X162630Y150644D01*
X162587Y150687D01*
X162583Y150691D01*
X162576Y150698D01*
X162565Y150713D01*
X162550Y150731D01*
X162532Y150753D01*
X162514Y150782D01*
X162492Y150815D01*
X162474Y150855D01*
X162452Y150895D01*
X162430Y150942D01*
X162412Y150990D01*
X162394Y151044D01*
X162379Y151102D01*
X162368Y151164D01*
X162361Y151226D01*
X162357Y151295D01*
Y151328D01*
X162361Y151350D01*
X162365Y151379D01*
X162368Y151412D01*
X162375Y151448D01*
X162383Y151488D01*
X162405Y151576D01*
X162441Y151667D01*
X162463Y151714D01*
X162488Y151758D01*
X162521Y151801D01*
X162554Y151845D01*
X162557Y151849D01*
X162565Y151856D01*
X162576Y151867D01*
X162590Y151878D01*
X162609Y151896D01*
X162634Y151914D01*
X162659Y151936D01*
X162692Y151958D01*
X162729Y151980D01*
X162765Y152002D01*
X162852Y152041D01*
X162954Y152074D01*
X163009Y152085D01*
X163067Y152093D01*
X163107Y151783D01*
D02*
G37*
G36*
X117387Y67996D02*
X117423D01*
X117460Y67993D01*
X117507Y67989D01*
X117554Y67982D01*
X117660Y67964D01*
X117776Y67938D01*
X117893Y67902D01*
X118006Y67851D01*
X118009Y67847D01*
X118020Y67844D01*
X118035Y67836D01*
X118053Y67822D01*
X118078Y67807D01*
X118107Y67789D01*
X118173Y67742D01*
X118246Y67680D01*
X118319Y67607D01*
X118391Y67523D01*
X118453Y67425D01*
X118457Y67421D01*
X118461Y67410D01*
X118468Y67396D01*
X118479Y67378D01*
X118490Y67348D01*
X118501Y67319D01*
X118515Y67283D01*
X118530Y67243D01*
X118544Y67199D01*
X118559Y67152D01*
X118581Y67050D01*
X118599Y66934D01*
X118606Y66813D01*
Y66777D01*
X118603Y66751D01*
X118599Y66719D01*
X118595Y66679D01*
X118592Y66639D01*
X118581Y66591D01*
X118559Y66493D01*
X118526Y66384D01*
X118504Y66329D01*
X118479Y66278D01*
X118446Y66227D01*
X118413Y66176D01*
X118410Y66173D01*
X118406Y66166D01*
X118395Y66151D01*
X118377Y66133D01*
X118359Y66114D01*
X118333Y66089D01*
X118304Y66063D01*
X118275Y66034D01*
X118239Y66005D01*
X118195Y65976D01*
X118151Y65943D01*
X118104Y65914D01*
X118049Y65889D01*
X117995Y65860D01*
X117936Y65838D01*
X117871Y65816D01*
X117795Y66144D01*
X117798D01*
X117805Y66147D01*
X117820Y66154D01*
X117838Y66162D01*
X117860Y66169D01*
X117889Y66180D01*
X117947Y66209D01*
X118013Y66246D01*
X118078Y66289D01*
X118140Y66344D01*
X118195Y66402D01*
X118202Y66409D01*
X118217Y66431D01*
X118235Y66468D01*
X118260Y66515D01*
X118282Y66577D01*
X118304Y66646D01*
X118319Y66730D01*
X118322Y66821D01*
Y66850D01*
X118319Y66868D01*
Y66894D01*
X118315Y66923D01*
X118304Y66992D01*
X118289Y67068D01*
X118264Y67148D01*
X118228Y67232D01*
X118180Y67308D01*
Y67312D01*
X118173Y67316D01*
X118155Y67341D01*
X118126Y67374D01*
X118082Y67414D01*
X118027Y67461D01*
X117966Y67505D01*
X117889Y67545D01*
X117805Y67581D01*
X117802D01*
X117795Y67585D01*
X117783Y67589D01*
X117765Y67592D01*
X117744Y67600D01*
X117718Y67607D01*
X117656Y67618D01*
X117583Y67632D01*
X117503Y67647D01*
X117416Y67654D01*
X117321Y67658D01*
X117318D01*
X117307D01*
X117288D01*
X117267D01*
X117241Y67654D01*
X117208D01*
X117172Y67651D01*
X117132Y67647D01*
X117045Y67636D01*
X116950Y67618D01*
X116855Y67596D01*
X116761Y67567D01*
X116757D01*
X116750Y67563D01*
X116739Y67556D01*
X116721Y67549D01*
X116677Y67527D01*
X116626Y67494D01*
X116568Y67454D01*
X116506Y67403D01*
X116451Y67345D01*
X116400Y67276D01*
Y67272D01*
X116397Y67265D01*
X116389Y67254D01*
X116382Y67239D01*
X116375Y67221D01*
X116364Y67199D01*
X116342Y67148D01*
X116320Y67083D01*
X116302Y67010D01*
X116288Y66930D01*
X116284Y66846D01*
Y66821D01*
X116288Y66799D01*
Y66773D01*
X116291Y66748D01*
X116306Y66682D01*
X116324Y66606D01*
X116353Y66530D01*
X116393Y66449D01*
X116415Y66409D01*
X116444Y66373D01*
X116448Y66369D01*
X116451Y66366D01*
X116462Y66355D01*
X116473Y66340D01*
X116491Y66326D01*
X116513Y66307D01*
X116535Y66286D01*
X116564Y66267D01*
X116597Y66246D01*
X116633Y66220D01*
X116670Y66198D01*
X116713Y66176D01*
X116761Y66158D01*
X116812Y66140D01*
X116866Y66122D01*
X116925Y66107D01*
X116841Y65772D01*
X116837D01*
X116823Y65776D01*
X116801Y65783D01*
X116772Y65794D01*
X116739Y65805D01*
X116699Y65820D01*
X116655Y65838D01*
X116608Y65860D01*
X116506Y65911D01*
X116404Y65976D01*
X116353Y66016D01*
X116302Y66056D01*
X116258Y66100D01*
X116215Y66151D01*
X116211Y66154D01*
X116204Y66162D01*
X116197Y66180D01*
X116182Y66198D01*
X116164Y66227D01*
X116146Y66256D01*
X116127Y66296D01*
X116109Y66337D01*
X116087Y66384D01*
X116069Y66435D01*
X116051Y66489D01*
X116033Y66548D01*
X116018Y66610D01*
X116011Y66675D01*
X116004Y66744D01*
X116000Y66817D01*
Y66857D01*
X116004Y66886D01*
Y66919D01*
X116007Y66959D01*
X116015Y67003D01*
X116022Y67054D01*
X116040Y67159D01*
X116069Y67268D01*
X116109Y67378D01*
X116135Y67428D01*
X116164Y67479D01*
X116167Y67483D01*
X116171Y67490D01*
X116182Y67505D01*
X116197Y67520D01*
X116211Y67541D01*
X116233Y67567D01*
X116258Y67596D01*
X116288Y67625D01*
X116320Y67654D01*
X116353Y67687D01*
X116437Y67752D01*
X116535Y67814D01*
X116644Y67869D01*
X116648D01*
X116659Y67876D01*
X116677Y67880D01*
X116699Y67891D01*
X116728Y67898D01*
X116764Y67909D01*
X116804Y67924D01*
X116848Y67935D01*
X116895Y67945D01*
X116950Y67960D01*
X117063Y67978D01*
X117190Y67993D01*
X117321Y68000D01*
X117325D01*
X117340D01*
X117361D01*
X117387Y67996D01*
D02*
G37*
G36*
X116113Y65529D02*
X116146Y65525D01*
X116182Y65518D01*
X116218Y65510D01*
X116258Y65496D01*
X116262D01*
X116266Y65492D01*
X116288Y65485D01*
X116320Y65470D01*
X116364Y65448D01*
X116415Y65419D01*
X116473Y65383D01*
X116531Y65343D01*
X116593Y65292D01*
X116597D01*
X116601Y65285D01*
X116622Y65266D01*
X116655Y65234D01*
X116702Y65186D01*
X116757Y65132D01*
X116823Y65062D01*
X116895Y64979D01*
X116972Y64888D01*
X116975Y64884D01*
X116986Y64870D01*
X117005Y64848D01*
X117026Y64822D01*
X117055Y64789D01*
X117088Y64749D01*
X117125Y64710D01*
X117165Y64662D01*
X117252Y64571D01*
X117340Y64480D01*
X117383Y64437D01*
X117427Y64396D01*
X117467Y64360D01*
X117507Y64331D01*
X117510D01*
X117514Y64324D01*
X117525Y64316D01*
X117540Y64309D01*
X117580Y64284D01*
X117627Y64254D01*
X117685Y64229D01*
X117747Y64204D01*
X117816Y64189D01*
X117882Y64182D01*
X117885D01*
X117889D01*
X117911Y64185D01*
X117947Y64189D01*
X117987Y64200D01*
X118038Y64214D01*
X118089Y64240D01*
X118140Y64273D01*
X118191Y64316D01*
X118199Y64324D01*
X118213Y64342D01*
X118231Y64367D01*
X118257Y64407D01*
X118279Y64458D01*
X118300Y64517D01*
X118315Y64586D01*
X118319Y64662D01*
Y64684D01*
X118315Y64699D01*
X118311Y64742D01*
X118300Y64793D01*
X118286Y64848D01*
X118260Y64910D01*
X118228Y64968D01*
X118184Y65022D01*
X118177Y65030D01*
X118158Y65044D01*
X118129Y65066D01*
X118086Y65088D01*
X118035Y65114D01*
X117969Y65135D01*
X117896Y65150D01*
X117813Y65157D01*
X117845Y65474D01*
X117849D01*
X117860Y65470D01*
X117878D01*
X117904Y65467D01*
X117933Y65459D01*
X117966Y65452D01*
X118006Y65441D01*
X118046Y65430D01*
X118133Y65401D01*
X118220Y65357D01*
X118264Y65332D01*
X118308Y65299D01*
X118348Y65266D01*
X118384Y65230D01*
X118388Y65226D01*
X118391Y65219D01*
X118402Y65208D01*
X118413Y65190D01*
X118428Y65168D01*
X118442Y65143D01*
X118461Y65114D01*
X118479Y65077D01*
X118497Y65037D01*
X118515Y64993D01*
X118530Y64946D01*
X118544Y64895D01*
X118555Y64841D01*
X118566Y64782D01*
X118570Y64720D01*
X118573Y64655D01*
Y64618D01*
X118570Y64593D01*
X118566Y64564D01*
X118562Y64527D01*
X118555Y64487D01*
X118548Y64447D01*
X118523Y64353D01*
X118486Y64258D01*
X118464Y64211D01*
X118439Y64164D01*
X118406Y64120D01*
X118370Y64080D01*
X118366Y64076D01*
X118362Y64069D01*
X118348Y64061D01*
X118333Y64047D01*
X118315Y64029D01*
X118289Y64011D01*
X118264Y63992D01*
X118231Y63971D01*
X118162Y63934D01*
X118075Y63898D01*
X118031Y63883D01*
X117980Y63876D01*
X117929Y63869D01*
X117875Y63865D01*
X117867D01*
X117849D01*
X117820Y63869D01*
X117780Y63872D01*
X117736Y63880D01*
X117685Y63894D01*
X117631Y63909D01*
X117576Y63930D01*
X117569Y63934D01*
X117551Y63941D01*
X117522Y63956D01*
X117481Y63978D01*
X117438Y64007D01*
X117383Y64043D01*
X117329Y64087D01*
X117267Y64138D01*
X117259Y64145D01*
X117238Y64164D01*
X117219Y64182D01*
X117201Y64200D01*
X117179Y64222D01*
X117150Y64251D01*
X117121Y64280D01*
X117088Y64316D01*
X117052Y64353D01*
X117012Y64396D01*
X116972Y64444D01*
X116925Y64495D01*
X116877Y64553D01*
X116826Y64611D01*
X116823Y64615D01*
X116815Y64622D01*
X116804Y64637D01*
X116790Y64655D01*
X116768Y64677D01*
X116746Y64702D01*
X116699Y64760D01*
X116644Y64822D01*
X116590Y64881D01*
X116542Y64931D01*
X116524Y64953D01*
X116506Y64972D01*
X116502Y64975D01*
X116491Y64986D01*
X116477Y65001D01*
X116455Y65019D01*
X116429Y65037D01*
X116404Y65059D01*
X116342Y65103D01*
Y63861D01*
X116044D01*
Y65532D01*
X116047D01*
X116062D01*
X116084D01*
X116113Y65529D01*
D02*
G37*
G36*
X119500Y22570D02*
X119547Y22562D01*
X119606Y22552D01*
X119671Y22533D01*
X119737Y22512D01*
X119802Y22482D01*
X119806D01*
X119809Y22479D01*
X119831Y22468D01*
X119864Y22446D01*
X119901Y22421D01*
X119944Y22384D01*
X119988Y22344D01*
X120031Y22297D01*
X120068Y22242D01*
X120071Y22235D01*
X120082Y22217D01*
X120097Y22184D01*
X120115Y22144D01*
X120133Y22097D01*
X120148Y22042D01*
X120159Y21980D01*
X120162Y21918D01*
Y21911D01*
Y21889D01*
X120159Y21860D01*
X120152Y21820D01*
X120141Y21773D01*
X120123Y21722D01*
X120101Y21671D01*
X120071Y21620D01*
X120068Y21612D01*
X120057Y21598D01*
X120035Y21572D01*
X120006Y21543D01*
X119970Y21511D01*
X119926Y21474D01*
X119875Y21441D01*
X119813Y21409D01*
X119817D01*
X119824Y21405D01*
X119835Y21401D01*
X119850Y21398D01*
X119889Y21383D01*
X119940Y21361D01*
X119999Y21332D01*
X120057Y21296D01*
X120112Y21249D01*
X120162Y21194D01*
X120166Y21187D01*
X120181Y21165D01*
X120203Y21128D01*
X120224Y21081D01*
X120246Y21023D01*
X120268Y20954D01*
X120283Y20874D01*
X120286Y20786D01*
Y20783D01*
Y20772D01*
Y20753D01*
X120283Y20732D01*
X120279Y20703D01*
X120272Y20670D01*
X120264Y20633D01*
X120257Y20593D01*
X120228Y20506D01*
X120206Y20459D01*
X120184Y20415D01*
X120155Y20368D01*
X120123Y20320D01*
X120086Y20273D01*
X120042Y20229D01*
X120039Y20226D01*
X120031Y20218D01*
X120017Y20207D01*
X119999Y20193D01*
X119977Y20175D01*
X119948Y20156D01*
X119915Y20135D01*
X119875Y20116D01*
X119835Y20095D01*
X119788Y20073D01*
X119740Y20055D01*
X119686Y20036D01*
X119627Y20022D01*
X119566Y20011D01*
X119504Y20004D01*
X119434Y20000D01*
X119402D01*
X119380Y20004D01*
X119351Y20007D01*
X119318Y20011D01*
X119282Y20018D01*
X119242Y20025D01*
X119154Y20047D01*
X119063Y20084D01*
X119016Y20106D01*
X118972Y20131D01*
X118929Y20164D01*
X118885Y20197D01*
X118881Y20200D01*
X118874Y20207D01*
X118863Y20218D01*
X118852Y20233D01*
X118834Y20251D01*
X118816Y20277D01*
X118794Y20302D01*
X118772Y20335D01*
X118750Y20371D01*
X118728Y20408D01*
X118688Y20495D01*
X118656Y20597D01*
X118645Y20651D01*
X118637Y20710D01*
X118947Y20750D01*
Y20746D01*
X118950Y20739D01*
X118954Y20724D01*
X118958Y20706D01*
X118961Y20684D01*
X118969Y20659D01*
X118987Y20604D01*
X119012Y20539D01*
X119045Y20477D01*
X119081Y20418D01*
X119125Y20368D01*
X119132Y20364D01*
X119147Y20349D01*
X119176Y20331D01*
X119212Y20313D01*
X119256Y20291D01*
X119311Y20273D01*
X119373Y20258D01*
X119438Y20255D01*
X119460D01*
X119475Y20258D01*
X119515Y20262D01*
X119566Y20273D01*
X119624Y20291D01*
X119686Y20317D01*
X119748Y20353D01*
X119806Y20404D01*
X119813Y20411D01*
X119831Y20433D01*
X119853Y20466D01*
X119882Y20509D01*
X119911Y20564D01*
X119933Y20626D01*
X119951Y20699D01*
X119959Y20779D01*
Y20783D01*
Y20790D01*
Y20801D01*
X119955Y20815D01*
X119951Y20855D01*
X119940Y20903D01*
X119926Y20961D01*
X119901Y21019D01*
X119864Y21077D01*
X119817Y21132D01*
X119809Y21139D01*
X119791Y21154D01*
X119762Y21176D01*
X119722Y21201D01*
X119671Y21227D01*
X119609Y21249D01*
X119540Y21263D01*
X119464Y21270D01*
X119431D01*
X119405Y21267D01*
X119373Y21263D01*
X119336Y21256D01*
X119293Y21249D01*
X119245Y21238D01*
X119282Y21511D01*
X119300D01*
X119314Y21507D01*
X119362D01*
X119402Y21514D01*
X119449Y21521D01*
X119504Y21532D01*
X119566Y21551D01*
X119624Y21576D01*
X119686Y21609D01*
X119689D01*
X119693Y21612D01*
X119711Y21627D01*
X119737Y21653D01*
X119766Y21685D01*
X119795Y21733D01*
X119820Y21787D01*
X119839Y21849D01*
X119846Y21885D01*
Y21926D01*
Y21929D01*
Y21933D01*
Y21955D01*
X119839Y21984D01*
X119831Y22024D01*
X119817Y22068D01*
X119799Y22115D01*
X119769Y22162D01*
X119729Y22206D01*
X119726Y22209D01*
X119708Y22224D01*
X119682Y22242D01*
X119649Y22264D01*
X119606Y22282D01*
X119555Y22300D01*
X119496Y22315D01*
X119431Y22319D01*
X119402D01*
X119369Y22311D01*
X119325Y22304D01*
X119278Y22289D01*
X119231Y22271D01*
X119180Y22242D01*
X119132Y22206D01*
X119129Y22202D01*
X119114Y22184D01*
X119092Y22159D01*
X119067Y22122D01*
X119041Y22075D01*
X119016Y22016D01*
X118994Y21947D01*
X118980Y21867D01*
X118670Y21922D01*
Y21926D01*
X118674Y21936D01*
X118677Y21951D01*
X118681Y21973D01*
X118688Y21998D01*
X118699Y22027D01*
X118721Y22097D01*
X118757Y22177D01*
X118801Y22257D01*
X118856Y22333D01*
X118925Y22402D01*
X118929Y22406D01*
X118936Y22410D01*
X118947Y22417D01*
X118961Y22428D01*
X118980Y22442D01*
X119005Y22457D01*
X119030Y22471D01*
X119063Y22490D01*
X119136Y22519D01*
X119220Y22548D01*
X119318Y22566D01*
X119369Y22573D01*
X119460D01*
X119500Y22570D01*
D02*
G37*
G36*
X117254Y22559D02*
X117327Y22555D01*
X117400Y22548D01*
X117473Y22537D01*
X117534Y22526D01*
X117538D01*
X117545Y22523D01*
X117556D01*
X117571Y22515D01*
X117611Y22504D01*
X117662Y22486D01*
X117720Y22461D01*
X117782Y22428D01*
X117844Y22391D01*
X117902Y22344D01*
X117906Y22341D01*
X117909Y22337D01*
X117920Y22326D01*
X117935Y22315D01*
X117971Y22279D01*
X118015Y22228D01*
X118062Y22166D01*
X118113Y22093D01*
X118160Y22009D01*
X118201Y21915D01*
Y21911D01*
X118204Y21904D01*
X118211Y21889D01*
X118215Y21867D01*
X118226Y21842D01*
X118233Y21813D01*
X118241Y21780D01*
X118252Y21740D01*
X118263Y21700D01*
X118270Y21653D01*
X118288Y21551D01*
X118299Y21438D01*
X118303Y21314D01*
Y21310D01*
Y21303D01*
Y21285D01*
Y21267D01*
X118299Y21241D01*
Y21212D01*
X118295Y21143D01*
X118284Y21063D01*
X118273Y20979D01*
X118255Y20892D01*
X118233Y20804D01*
Y20801D01*
X118230Y20794D01*
X118226Y20783D01*
X118222Y20768D01*
X118208Y20728D01*
X118186Y20677D01*
X118164Y20619D01*
X118135Y20561D01*
X118099Y20499D01*
X118062Y20440D01*
X118059Y20433D01*
X118044Y20415D01*
X118022Y20389D01*
X117993Y20357D01*
X117960Y20320D01*
X117920Y20284D01*
X117880Y20244D01*
X117833Y20211D01*
X117826Y20207D01*
X117811Y20197D01*
X117786Y20182D01*
X117749Y20164D01*
X117706Y20142D01*
X117655Y20124D01*
X117596Y20102D01*
X117531Y20084D01*
X117524D01*
X117513Y20080D01*
X117502Y20076D01*
X117465Y20073D01*
X117414Y20065D01*
X117356Y20058D01*
X117287Y20051D01*
X117210Y20047D01*
X117127Y20044D01*
X116220D01*
Y22562D01*
X117189D01*
X117254Y22559D01*
D02*
G37*
G36*
X86248Y55603D02*
X86281Y55599D01*
X86321Y55595D01*
X86361Y55592D01*
X86409Y55581D01*
X86507Y55559D01*
X86616Y55526D01*
X86671Y55504D01*
X86722Y55479D01*
X86773Y55446D01*
X86824Y55413D01*
X86827Y55410D01*
X86835Y55406D01*
X86849Y55395D01*
X86867Y55377D01*
X86885Y55359D01*
X86911Y55333D01*
X86936Y55304D01*
X86966Y55275D01*
X86995Y55238D01*
X87024Y55195D01*
X87057Y55151D01*
X87086Y55104D01*
X87111Y55049D01*
X87140Y54995D01*
X87162Y54936D01*
X87184Y54871D01*
X86856Y54795D01*
Y54798D01*
X86853Y54805D01*
X86845Y54820D01*
X86838Y54838D01*
X86831Y54860D01*
X86820Y54889D01*
X86791Y54947D01*
X86754Y55013D01*
X86711Y55078D01*
X86656Y55140D01*
X86598Y55195D01*
X86591Y55202D01*
X86569Y55217D01*
X86532Y55235D01*
X86485Y55260D01*
X86423Y55282D01*
X86354Y55304D01*
X86270Y55319D01*
X86179Y55322D01*
X86150D01*
X86132Y55319D01*
X86106D01*
X86077Y55315D01*
X86008Y55304D01*
X85932Y55290D01*
X85852Y55264D01*
X85768Y55228D01*
X85691Y55180D01*
X85688D01*
X85684Y55173D01*
X85659Y55155D01*
X85626Y55126D01*
X85586Y55082D01*
X85539Y55027D01*
X85495Y54966D01*
X85455Y54889D01*
X85419Y54805D01*
Y54802D01*
X85415Y54795D01*
X85411Y54784D01*
X85408Y54765D01*
X85400Y54743D01*
X85393Y54718D01*
X85382Y54656D01*
X85368Y54583D01*
X85353Y54503D01*
X85346Y54416D01*
X85342Y54321D01*
Y54318D01*
Y54307D01*
Y54289D01*
Y54267D01*
X85346Y54241D01*
Y54208D01*
X85349Y54172D01*
X85353Y54132D01*
X85364Y54045D01*
X85382Y53950D01*
X85404Y53855D01*
X85433Y53761D01*
Y53757D01*
X85437Y53750D01*
X85444Y53739D01*
X85451Y53721D01*
X85473Y53677D01*
X85506Y53626D01*
X85546Y53568D01*
X85597Y53506D01*
X85655Y53451D01*
X85724Y53400D01*
X85728D01*
X85735Y53397D01*
X85746Y53389D01*
X85761Y53382D01*
X85779Y53375D01*
X85801Y53364D01*
X85852Y53342D01*
X85917Y53320D01*
X85990Y53302D01*
X86070Y53288D01*
X86154Y53284D01*
X86179D01*
X86201Y53288D01*
X86227D01*
X86252Y53291D01*
X86318Y53306D01*
X86394Y53324D01*
X86471Y53353D01*
X86551Y53393D01*
X86591Y53415D01*
X86627Y53444D01*
X86631Y53448D01*
X86634Y53451D01*
X86645Y53462D01*
X86660Y53473D01*
X86674Y53491D01*
X86693Y53513D01*
X86714Y53535D01*
X86733Y53564D01*
X86754Y53597D01*
X86780Y53633D01*
X86802Y53670D01*
X86824Y53713D01*
X86842Y53761D01*
X86860Y53812D01*
X86878Y53866D01*
X86893Y53925D01*
X87228Y53841D01*
Y53837D01*
X87224Y53823D01*
X87217Y53801D01*
X87206Y53772D01*
X87195Y53739D01*
X87180Y53699D01*
X87162Y53655D01*
X87140Y53608D01*
X87089Y53506D01*
X87024Y53404D01*
X86984Y53353D01*
X86944Y53302D01*
X86900Y53258D01*
X86849Y53215D01*
X86845Y53211D01*
X86838Y53204D01*
X86820Y53197D01*
X86802Y53182D01*
X86773Y53164D01*
X86743Y53146D01*
X86703Y53127D01*
X86663Y53109D01*
X86616Y53087D01*
X86565Y53069D01*
X86511Y53051D01*
X86452Y53033D01*
X86390Y53018D01*
X86325Y53011D01*
X86256Y53004D01*
X86183Y53000D01*
X86143D01*
X86114Y53004D01*
X86081D01*
X86041Y53007D01*
X85997Y53014D01*
X85946Y53022D01*
X85841Y53040D01*
X85732Y53069D01*
X85622Y53109D01*
X85571Y53135D01*
X85520Y53164D01*
X85517Y53167D01*
X85510Y53171D01*
X85495Y53182D01*
X85480Y53197D01*
X85459Y53211D01*
X85433Y53233D01*
X85404Y53258D01*
X85375Y53288D01*
X85346Y53320D01*
X85313Y53353D01*
X85247Y53437D01*
X85186Y53535D01*
X85131Y53644D01*
Y53648D01*
X85124Y53659D01*
X85120Y53677D01*
X85109Y53699D01*
X85102Y53728D01*
X85091Y53764D01*
X85076Y53804D01*
X85066Y53848D01*
X85054Y53895D01*
X85040Y53950D01*
X85022Y54063D01*
X85007Y54190D01*
X85000Y54321D01*
Y54325D01*
Y54339D01*
Y54361D01*
X85004Y54387D01*
Y54423D01*
X85007Y54460D01*
X85011Y54507D01*
X85018Y54554D01*
X85036Y54660D01*
X85062Y54776D01*
X85098Y54893D01*
X85149Y55006D01*
X85153Y55009D01*
X85157Y55020D01*
X85164Y55035D01*
X85178Y55053D01*
X85193Y55078D01*
X85211Y55107D01*
X85258Y55173D01*
X85320Y55246D01*
X85393Y55319D01*
X85477Y55391D01*
X85575Y55453D01*
X85579Y55457D01*
X85590Y55461D01*
X85604Y55468D01*
X85622Y55479D01*
X85651Y55490D01*
X85681Y55501D01*
X85717Y55515D01*
X85757Y55530D01*
X85801Y55544D01*
X85848Y55559D01*
X85950Y55581D01*
X86067Y55599D01*
X86187Y55606D01*
X86223D01*
X86248Y55603D01*
D02*
G37*
G36*
X88676Y53044D02*
X88367D01*
Y55013D01*
X88363Y55009D01*
X88345Y54995D01*
X88323Y54973D01*
X88287Y54947D01*
X88247Y54915D01*
X88196Y54878D01*
X88138Y54838D01*
X88072Y54798D01*
X88068D01*
X88065Y54795D01*
X88043Y54780D01*
X88007Y54762D01*
X87963Y54740D01*
X87912Y54714D01*
X87857Y54689D01*
X87803Y54663D01*
X87748Y54642D01*
Y54940D01*
X87752D01*
X87759Y54947D01*
X87774Y54951D01*
X87792Y54962D01*
X87814Y54973D01*
X87839Y54987D01*
X87901Y55024D01*
X87974Y55064D01*
X88047Y55115D01*
X88123Y55173D01*
X88200Y55235D01*
X88203Y55238D01*
X88207Y55242D01*
X88218Y55253D01*
X88232Y55264D01*
X88265Y55300D01*
X88309Y55344D01*
X88352Y55395D01*
X88400Y55453D01*
X88440Y55511D01*
X88476Y55573D01*
X88676D01*
Y53044D01*
D02*
G37*
G36*
X84500Y187481D02*
X83532D01*
X83466Y187485D01*
X83394Y187488D01*
X83321Y187496D01*
X83248Y187507D01*
X83186Y187518D01*
X83182D01*
X83175Y187521D01*
X83164D01*
X83150Y187529D01*
X83110Y187539D01*
X83059Y187558D01*
X83000Y187583D01*
X82938Y187616D01*
X82877Y187652D01*
X82818Y187699D01*
X82815Y187703D01*
X82811Y187707D01*
X82800Y187718D01*
X82786Y187729D01*
X82749Y187765D01*
X82705Y187816D01*
X82658Y187878D01*
X82607Y187951D01*
X82560Y188034D01*
X82520Y188129D01*
Y188133D01*
X82516Y188140D01*
X82509Y188154D01*
X82505Y188176D01*
X82494Y188202D01*
X82487Y188231D01*
X82480Y188264D01*
X82469Y188304D01*
X82458Y188344D01*
X82451Y188391D01*
X82433Y188493D01*
X82422Y188606D01*
X82418Y188730D01*
Y188733D01*
Y188741D01*
Y188759D01*
Y188777D01*
X82422Y188803D01*
Y188832D01*
X82425Y188901D01*
X82436Y188981D01*
X82447Y189065D01*
X82465Y189152D01*
X82487Y189239D01*
Y189243D01*
X82491Y189250D01*
X82494Y189261D01*
X82498Y189276D01*
X82513Y189316D01*
X82534Y189367D01*
X82556Y189425D01*
X82585Y189483D01*
X82622Y189545D01*
X82658Y189603D01*
X82662Y189611D01*
X82676Y189629D01*
X82698Y189654D01*
X82727Y189687D01*
X82760Y189723D01*
X82800Y189760D01*
X82840Y189800D01*
X82888Y189833D01*
X82895Y189836D01*
X82909Y189847D01*
X82935Y189862D01*
X82971Y189880D01*
X83015Y189902D01*
X83066Y189920D01*
X83124Y189942D01*
X83190Y189960D01*
X83197D01*
X83208Y189964D01*
X83219Y189967D01*
X83255Y189971D01*
X83306Y189978D01*
X83364Y189986D01*
X83434Y189993D01*
X83510Y189996D01*
X83594Y190000D01*
X84500D01*
Y187481D01*
D02*
G37*
G36*
X82130Y189996D02*
Y189982D01*
Y189960D01*
X82127Y189931D01*
X82123Y189898D01*
X82116Y189862D01*
X82109Y189825D01*
X82094Y189785D01*
Y189782D01*
X82090Y189778D01*
X82083Y189756D01*
X82069Y189723D01*
X82047Y189680D01*
X82018Y189629D01*
X81981Y189570D01*
X81941Y189512D01*
X81890Y189450D01*
Y189447D01*
X81883Y189443D01*
X81865Y189421D01*
X81832Y189389D01*
X81785Y189341D01*
X81730Y189287D01*
X81661Y189221D01*
X81577Y189148D01*
X81486Y189072D01*
X81482Y189068D01*
X81468Y189057D01*
X81446Y189039D01*
X81421Y189017D01*
X81388Y188988D01*
X81348Y188955D01*
X81308Y188919D01*
X81260Y188879D01*
X81169Y188792D01*
X81078Y188704D01*
X81035Y188661D01*
X80995Y188617D01*
X80958Y188577D01*
X80929Y188537D01*
Y188533D01*
X80922Y188530D01*
X80915Y188519D01*
X80907Y188504D01*
X80882Y188464D01*
X80853Y188417D01*
X80827Y188358D01*
X80802Y188296D01*
X80787Y188227D01*
X80780Y188162D01*
Y188158D01*
Y188154D01*
X80784Y188133D01*
X80787Y188096D01*
X80798Y188056D01*
X80813Y188005D01*
X80838Y187954D01*
X80871Y187903D01*
X80915Y187852D01*
X80922Y187845D01*
X80940Y187831D01*
X80966Y187812D01*
X81006Y187787D01*
X81057Y187765D01*
X81115Y187743D01*
X81184Y187729D01*
X81260Y187725D01*
X81282D01*
X81297Y187729D01*
X81340Y187732D01*
X81392Y187743D01*
X81446Y187758D01*
X81508Y187783D01*
X81566Y187816D01*
X81621Y187860D01*
X81628Y187867D01*
X81643Y187885D01*
X81665Y187914D01*
X81686Y187958D01*
X81712Y188009D01*
X81734Y188075D01*
X81748Y188147D01*
X81756Y188231D01*
X82072Y188198D01*
Y188195D01*
X82069Y188184D01*
Y188165D01*
X82065Y188140D01*
X82058Y188111D01*
X82050Y188078D01*
X82039Y188038D01*
X82029Y187998D01*
X81999Y187911D01*
X81956Y187823D01*
X81930Y187780D01*
X81897Y187736D01*
X81865Y187696D01*
X81828Y187660D01*
X81825Y187656D01*
X81817Y187652D01*
X81806Y187641D01*
X81788Y187630D01*
X81766Y187616D01*
X81741Y187601D01*
X81712Y187583D01*
X81675Y187565D01*
X81635Y187547D01*
X81592Y187529D01*
X81544Y187514D01*
X81493Y187499D01*
X81439Y187488D01*
X81381Y187478D01*
X81319Y187474D01*
X81253Y187470D01*
X81217D01*
X81191Y187474D01*
X81162Y187478D01*
X81126Y187481D01*
X81086Y187488D01*
X81046Y187496D01*
X80951Y187521D01*
X80856Y187558D01*
X80809Y187579D01*
X80762Y187605D01*
X80718Y187638D01*
X80678Y187674D01*
X80674Y187678D01*
X80667Y187681D01*
X80660Y187696D01*
X80645Y187710D01*
X80627Y187729D01*
X80609Y187754D01*
X80591Y187780D01*
X80569Y187812D01*
X80532Y187882D01*
X80496Y187969D01*
X80481Y188013D01*
X80474Y188064D01*
X80467Y188115D01*
X80463Y188169D01*
Y188176D01*
Y188195D01*
X80467Y188224D01*
X80471Y188264D01*
X80478Y188307D01*
X80492Y188358D01*
X80507Y188413D01*
X80529Y188468D01*
X80532Y188475D01*
X80540Y188493D01*
X80554Y188522D01*
X80576Y188562D01*
X80605Y188606D01*
X80642Y188661D01*
X80685Y188715D01*
X80736Y188777D01*
X80744Y188784D01*
X80762Y188806D01*
X80780Y188824D01*
X80798Y188842D01*
X80820Y188864D01*
X80849Y188893D01*
X80878Y188923D01*
X80915Y188955D01*
X80951Y188992D01*
X80995Y189032D01*
X81042Y189072D01*
X81093Y189119D01*
X81151Y189166D01*
X81209Y189217D01*
X81213Y189221D01*
X81220Y189228D01*
X81235Y189239D01*
X81253Y189254D01*
X81275Y189276D01*
X81300Y189297D01*
X81359Y189345D01*
X81421Y189399D01*
X81479Y189454D01*
X81530Y189501D01*
X81552Y189520D01*
X81570Y189538D01*
X81573Y189541D01*
X81584Y189552D01*
X81599Y189567D01*
X81617Y189589D01*
X81635Y189614D01*
X81657Y189640D01*
X81701Y189701D01*
X80460D01*
Y190000D01*
X82130D01*
Y189996D01*
D02*
G37*
G36*
X87578Y164000D02*
X87269D01*
Y165969D01*
X87265Y165966D01*
X87247Y165951D01*
X87225Y165929D01*
X87189Y165904D01*
X87149Y165871D01*
X87098Y165834D01*
X87039Y165795D01*
X86974Y165754D01*
X86970D01*
X86967Y165751D01*
X86945Y165736D01*
X86908Y165718D01*
X86865Y165696D01*
X86814Y165671D01*
X86759Y165645D01*
X86704Y165620D01*
X86650Y165598D01*
Y165896D01*
X86654D01*
X86661Y165904D01*
X86675Y165907D01*
X86694Y165918D01*
X86715Y165929D01*
X86741Y165944D01*
X86803Y165980D01*
X86875Y166020D01*
X86948Y166071D01*
X87025Y166129D01*
X87101Y166191D01*
X87105Y166195D01*
X87108Y166199D01*
X87119Y166209D01*
X87134Y166220D01*
X87167Y166257D01*
X87210Y166300D01*
X87254Y166351D01*
X87301Y166410D01*
X87341Y166468D01*
X87378Y166530D01*
X87578D01*
Y164000D01*
D02*
G37*
G36*
X85034Y166515D02*
X85106Y166512D01*
X85179Y166504D01*
X85252Y166493D01*
X85314Y166482D01*
X85318D01*
X85325Y166479D01*
X85336D01*
X85350Y166472D01*
X85390Y166461D01*
X85441Y166442D01*
X85500Y166417D01*
X85562Y166384D01*
X85623Y166348D01*
X85682Y166300D01*
X85685Y166297D01*
X85689Y166293D01*
X85700Y166282D01*
X85714Y166271D01*
X85751Y166235D01*
X85795Y166184D01*
X85842Y166122D01*
X85893Y166049D01*
X85940Y165966D01*
X85980Y165871D01*
Y165867D01*
X85984Y165860D01*
X85991Y165845D01*
X85995Y165824D01*
X86006Y165798D01*
X86013Y165769D01*
X86020Y165736D01*
X86031Y165696D01*
X86042Y165656D01*
X86049Y165609D01*
X86067Y165507D01*
X86078Y165394D01*
X86082Y165270D01*
Y165267D01*
Y165259D01*
Y165241D01*
Y165223D01*
X86078Y165198D01*
Y165168D01*
X86075Y165099D01*
X86064Y165019D01*
X86053Y164935D01*
X86035Y164848D01*
X86013Y164761D01*
Y164757D01*
X86009Y164750D01*
X86006Y164739D01*
X86002Y164724D01*
X85987Y164684D01*
X85966Y164633D01*
X85944Y164575D01*
X85915Y164517D01*
X85878Y164455D01*
X85842Y164397D01*
X85838Y164389D01*
X85824Y164371D01*
X85802Y164346D01*
X85773Y164313D01*
X85740Y164277D01*
X85700Y164240D01*
X85660Y164200D01*
X85612Y164167D01*
X85605Y164164D01*
X85591Y164153D01*
X85565Y164138D01*
X85529Y164120D01*
X85485Y164098D01*
X85434Y164080D01*
X85376Y164058D01*
X85310Y164040D01*
X85303D01*
X85292Y164036D01*
X85281Y164033D01*
X85245Y164029D01*
X85194Y164022D01*
X85136Y164014D01*
X85066Y164007D01*
X84990Y164004D01*
X84906Y164000D01*
X84000D01*
Y166519D01*
X84968D01*
X85034Y166515D01*
D02*
G37*
%LPC*%
G36*
X117138Y22264D02*
X116555D01*
Y20342D01*
X117152D01*
X117178Y20346D01*
X117232Y20349D01*
X117294Y20353D01*
X117360Y20360D01*
X117425Y20371D01*
X117480Y20386D01*
X117487Y20389D01*
X117505Y20393D01*
X117531Y20404D01*
X117564Y20418D01*
X117600Y20440D01*
X117636Y20462D01*
X117673Y20488D01*
X117709Y20517D01*
X117713Y20524D01*
X117727Y20539D01*
X117749Y20564D01*
X117775Y20601D01*
X117804Y20648D01*
X117837Y20703D01*
X117866Y20764D01*
X117891Y20833D01*
Y20837D01*
X117895Y20844D01*
X117898Y20855D01*
X117902Y20870D01*
X117906Y20888D01*
X117913Y20914D01*
X117920Y20939D01*
X117928Y20968D01*
X117938Y21041D01*
X117949Y21125D01*
X117957Y21219D01*
X117960Y21321D01*
Y21325D01*
Y21339D01*
Y21358D01*
X117957Y21387D01*
Y21420D01*
X117953Y21456D01*
X117949Y21500D01*
X117946Y21543D01*
X117928Y21642D01*
X117906Y21744D01*
X117873Y21838D01*
X117851Y21885D01*
X117829Y21926D01*
Y21929D01*
X117822Y21936D01*
X117815Y21947D01*
X117807Y21962D01*
X117778Y21998D01*
X117742Y22042D01*
X117695Y22089D01*
X117640Y22137D01*
X117578Y22177D01*
X117513Y22209D01*
X117505Y22213D01*
X117487Y22217D01*
X117454Y22228D01*
X117407Y22239D01*
X117349Y22246D01*
X117276Y22257D01*
X117232Y22260D01*
X117185D01*
X117138Y22264D01*
D02*
G37*
G36*
X84165Y189701D02*
X83568D01*
X83543Y189698D01*
X83488Y189694D01*
X83426Y189691D01*
X83361Y189683D01*
X83295Y189672D01*
X83241Y189658D01*
X83233Y189654D01*
X83215Y189651D01*
X83190Y189640D01*
X83157Y189625D01*
X83121Y189603D01*
X83084Y189581D01*
X83048Y189556D01*
X83011Y189527D01*
X83008Y189520D01*
X82993Y189505D01*
X82971Y189479D01*
X82946Y189443D01*
X82917Y189396D01*
X82884Y189341D01*
X82855Y189279D01*
X82829Y189210D01*
Y189207D01*
X82826Y189199D01*
X82822Y189188D01*
X82818Y189174D01*
X82815Y189155D01*
X82807Y189130D01*
X82800Y189105D01*
X82793Y189076D01*
X82782Y189003D01*
X82771Y188919D01*
X82764Y188824D01*
X82760Y188722D01*
Y188719D01*
Y188704D01*
Y188686D01*
X82764Y188657D01*
Y188624D01*
X82767Y188588D01*
X82771Y188544D01*
X82775Y188500D01*
X82793Y188402D01*
X82815Y188300D01*
X82847Y188206D01*
X82869Y188158D01*
X82891Y188118D01*
Y188115D01*
X82898Y188107D01*
X82906Y188096D01*
X82913Y188082D01*
X82942Y188045D01*
X82978Y188002D01*
X83026Y187954D01*
X83080Y187907D01*
X83142Y187867D01*
X83208Y187834D01*
X83215Y187831D01*
X83233Y187827D01*
X83266Y187816D01*
X83313Y187805D01*
X83372Y187798D01*
X83444Y187787D01*
X83488Y187783D01*
X83535D01*
X83583Y187780D01*
X84165D01*
Y189701D01*
D02*
G37*
G36*
X84917Y166220D02*
X84335D01*
Y164298D01*
X84932D01*
X84957Y164302D01*
X85012Y164306D01*
X85074Y164309D01*
X85139Y164317D01*
X85205Y164328D01*
X85259Y164342D01*
X85267Y164346D01*
X85285Y164349D01*
X85310Y164360D01*
X85343Y164375D01*
X85379Y164397D01*
X85416Y164419D01*
X85452Y164444D01*
X85489Y164473D01*
X85492Y164480D01*
X85507Y164495D01*
X85529Y164521D01*
X85554Y164557D01*
X85583Y164604D01*
X85616Y164659D01*
X85645Y164721D01*
X85671Y164790D01*
Y164794D01*
X85674Y164801D01*
X85678Y164812D01*
X85682Y164826D01*
X85685Y164844D01*
X85693Y164870D01*
X85700Y164895D01*
X85707Y164925D01*
X85718Y164997D01*
X85729Y165081D01*
X85736Y165176D01*
X85740Y165278D01*
Y165281D01*
Y165296D01*
Y165314D01*
X85736Y165343D01*
Y165376D01*
X85733Y165412D01*
X85729Y165456D01*
X85725Y165500D01*
X85707Y165598D01*
X85685Y165700D01*
X85653Y165795D01*
X85631Y165842D01*
X85609Y165882D01*
Y165885D01*
X85602Y165893D01*
X85594Y165904D01*
X85587Y165918D01*
X85558Y165955D01*
X85522Y165998D01*
X85474Y166046D01*
X85420Y166093D01*
X85358Y166133D01*
X85292Y166166D01*
X85285Y166169D01*
X85267Y166173D01*
X85234Y166184D01*
X85187Y166195D01*
X85128Y166202D01*
X85056Y166213D01*
X85012Y166217D01*
X84965D01*
X84917Y166220D01*
D02*
G37*
%LPD*%
D10*
X152173Y166205D02*
X174024D01*
X152173Y141598D02*
Y166205D01*
Y141598D02*
X174024D01*
Y166205D01*
X110685Y80598D02*
X121315D01*
X110685Y55402D02*
Y80598D01*
Y55402D02*
X121315D01*
Y80598D01*
X70276Y30827D02*
X162165D01*
Y9173D02*
Y30827D01*
X70276Y9173D02*
X162165D01*
X70276D02*
Y30827D01*
X72402Y58315D02*
X97598D01*
Y47685D02*
Y58315D01*
X72402Y47685D02*
X97598D01*
X72402D02*
Y58315D01*
X38555Y179173D02*
X130445D01*
X38555D02*
Y200827D01*
X130445D01*
Y179173D02*
Y200827D01*
X38055Y174827D02*
X129945D01*
Y153173D02*
Y174827D01*
X38055Y153173D02*
X129945D01*
X38055D02*
Y174827D01*
M02*
