G04*
G04 #@! TF.GenerationSoftware,Altium Limited,Altium Designer,21.3.1 (25)*
G04*
G04 Layer_Color=16711935*
%FSLAX25Y25*%
%MOIN*%
G70*
G04*
G04 #@! TF.SameCoordinates,4C1A46CD-458D-4170-9141-97B0DDD3FF2F*
G04*
G04*
G04 #@! TF.FilePolarity,Positive*
G04*
G01*
G75*
%ADD10C,0.00787*%
%ADD13C,0.00500*%
%ADD46C,0.00394*%
D10*
X137665Y123000D02*
X136878D01*
X137665D01*
X51122Y38500D02*
X50335D01*
X51122D01*
X152567Y165811D02*
X173433D01*
X152567Y142189D02*
Y165811D01*
Y142189D02*
X173433D01*
Y165811D01*
X111079Y75087D02*
X120921D01*
X111079Y60913D02*
Y75087D01*
Y60913D02*
X120921D01*
Y75087D01*
X97520Y30433D02*
X134921D01*
Y9567D02*
Y30433D01*
X97520Y9567D02*
X134921D01*
X97520D02*
Y30433D01*
X77913Y57921D02*
X92087D01*
Y48079D02*
Y57921D01*
X77913Y48079D02*
X92087D01*
X77913D02*
Y57921D01*
X65799Y179567D02*
X103201D01*
X65799D02*
Y200433D01*
X103201D01*
Y179567D02*
Y200433D01*
X65299Y174433D02*
X102701D01*
Y153567D02*
Y174433D01*
X65299Y153567D02*
X102701D01*
X65299D02*
Y174433D01*
D13*
X141209Y33000D02*
Y133000D01*
Y33000D02*
X181563D01*
Y133000D01*
X141209D02*
X181563D01*
X6437Y28500D02*
X46791D01*
X6437D02*
Y128500D01*
X46791D01*
Y28500D02*
Y128500D01*
X57425Y6850D02*
Y13150D01*
X60575D01*
Y6850D02*
Y13150D01*
X57425Y6850D02*
X60575D01*
X32925D02*
Y13150D01*
X36075D01*
Y6850D02*
Y13150D01*
X32925Y6850D02*
X36075D01*
D46*
X82520Y99437D02*
X82256Y100421D01*
X81535Y101142D01*
X80551Y101406D01*
X79567Y101142D01*
X78846Y100421D01*
X78583Y99437D01*
X78846Y98453D01*
X79567Y97732D01*
X80551Y97469D01*
X81535Y97732D01*
X82256Y98453D01*
X82520Y99437D01*
X111402Y129776D02*
Y139224D01*
X86598Y129776D02*
X111402D01*
X86598Y139224D02*
X111402D01*
X86598Y129776D02*
Y139224D01*
X77008Y63020D02*
X102992D01*
X77008Y102980D02*
X102992D01*
Y63020D02*
Y102980D01*
X77008Y63020D02*
Y102980D01*
X123276Y116902D02*
X132724D01*
Y92098D02*
Y116902D01*
X123276Y92098D02*
Y116902D01*
Y92098D02*
X132724D01*
X136937Y191102D02*
X179063D01*
Y177717D02*
Y196221D01*
X136937Y177717D02*
Y196221D01*
Y177717D02*
X179063D01*
X136937Y196221D02*
X179063D01*
X56776Y48598D02*
X66224D01*
X56776D02*
Y73402D01*
X66224Y48598D02*
Y73402D01*
X56776D02*
X66224D01*
M02*
